<?xml version="1.0" ?><svg xmlns="http://www.w3.org/2000/svg" xmlns:xlink="http://www.w3.org/1999/xlink" version="1.1" viewBox="0 0 64 64" style="enable-background:new 0 0 64 64;" xml:space="preserve"><g id="basket"/><g id="ketchup"/><g id="burger"/><g id="eggplant"/><g id="clamp"/><g id="chicken_leg"/><g id="hot_dog"/><g id="beer"/><g id="bread"/><g id="shrimp"/><g id="pepper"/><g id="mushroom"/><g id="wine"/><g id="sausage"/><g id="ribs"/><g id="chicken"/><g id="meat"/><g id="grill"><g><path d="M17.9,8l-0.8,1.6c-0.2,0.5,0,1.1,0.4,1.3C17.7,11,17.8,11,18,11c0.4,0,0.7-0.2,0.9-0.6l1-2c0.1-0.3,0.1-0.6,0-0.9L19.1,6    l0.8-1.6c0.2-0.5,0-1.1-0.4-1.3c-0.5-0.2-1.1,0-1.3,0.4l-1,2c-0.1,0.3-0.1,0.6,0,0.9L17.9,8z"/><path d="M26.9,8l-0.8,1.6c-0.2,0.5,0,1.1,0.4,1.3C26.7,11,26.8,11,27,11c0.4,0,0.7-0.2,0.9-0.6l1-2c0.1-0.3,0.1-0.6,0-0.9L28.1,6    l0.8-1.6c0.2-0.5,0-1.1-0.4-1.3c-0.5-0.2-1.1,0-1.3,0.4l-1,2c-0.1,0.3-0.1,0.6,0,0.9L26.9,8z"/><path d="M35.9,8l-0.8,1.6c-0.2,0.5,0,1.1,0.4,1.3C35.7,11,35.8,11,36,11c0.4,0,0.7-0.2,0.9-0.6l1-2c0.1-0.3,0.1-0.6,0-0.9L37.1,6    l0.8-1.6c0.2-0.5,0-1.1-0.4-1.3c-0.5-0.2-1.1,0-1.3,0.4l-1,2c-0.1,0.3-0.1,0.6,0,0.9L35.9,8z"/><path d="M44.9,8l-0.8,1.6c-0.2,0.5,0,1.1,0.4,1.3C44.7,11,44.8,11,45,11c0.4,0,0.7-0.2,0.9-0.6l1-2c0.1-0.3,0.1-0.6,0-0.9L46.1,6    l0.8-1.6c0.2-0.5,0-1.1-0.4-1.3c-0.5-0.2-1.1,0-1.3,0.4l-1,2c-0.1,0.3-0.1,0.6,0,0.9L44.9,8z"/><path d="M49.4,51.2l-4-18.4C51.8,28.6,56,21.3,56,13c0-0.6-0.4-1-1-1H9c-0.6,0-1,0.4-1,1c0,8.3,4.2,15.6,10.6,19.9l-4,18.4    C12.5,51.9,11,53.7,11,56c0,2.8,2.2,5,5,5s5-2.2,5-5c0-0.9-0.3-1.8-0.7-2.5L22,49H42l1.7,4.5C43.3,54.2,43,55.1,43,56    c0,2.8,2.2,5,5,5s5-2.2,5-5C53,53.7,51.5,51.9,49.4,51.2z M47.3,51.1c-0.8,0.1-1.5,0.4-2.1,0.8L39,36c1.6-0.5,3.2-1.2,4.6-2    L47.3,51.1z M32,37c1.7,0,3.4-0.2,5.1-0.5l2.2,5.5H24.8l2.2-5.5C28.6,36.8,30.3,37,32,37z M10,14h44c-0.5,11.7-10.2,21-22,21    C20.2,35,10.5,25.7,10,14z M25,36l-6.2,15.9c-0.6-0.4-1.3-0.7-2.1-0.8L20.4,34C21.8,34.8,23.4,35.5,25,36z M16,59    c-1.7,0-3-1.3-3-3s1.3-3,3-3s3,1.3,3,3S17.7,59,16,59z M22.8,47l1.2-3c0,0,0,0,0,0h16c0,0,0,0,0,0l1.2,3H22.8z M48,59    c-1.7,0-3-1.3-3-3s1.3-3,3-3s3,1.3,3,3S49.7,59,48,59z"/></g></g><g id="stove"/><g id="grilled"/></svg>