<?xml version="1.0" encoding="utf-8"?>
<!DOCTYPE svg PUBLIC "-//W3C//DTD SVG 1.0//EN" "http://www.w3.org/TR/2001/REC-SVG-20010904/DTD/svg10.dtd">
<svg version="1.0" xmlns="http://www.w3.org/2000/svg" width="64px" height="64px" viewBox="0 0 64 64" preserveAspectRatio="xMidYMid meet">
 <g fill="#64b161">
  <path d="M21 58.9 c-1.4 -0.7 -5.4 -1.1 -8.9 -1 l-6.4 0.2 0.6 -5.6 c0.4 -3.7 0.1 -7 -0.9 -9.7 -0.8 -2.2 -1.4 -7.5 -1.4 -11.7 0 -9.2 2.7 -15.9 8.5 -21 5.8 -5 9.3 -6.1 19.7 -6.1 10.6 0 15.3 1.6 20.7 7.1 5.4 5.4 7.1 10.1 7.1 20.4 0 13.2 -4 20.8 -13.5 25.8 -4.7 2.5 -21.3 3.5 -25.5 1.6z m1.3 -35.2 c-0.9 -1.5 -2.1 0.4 -1.5 2.5 0.5 2.1 0.6 2.1 1.2 0.2 0.4 -1 0.5 -2.2 0.3 -2.7z"/>
 </g>
 <g fill="#fdfdfd">
  <path d="M1 62 c0 -0.6 0.9 -4.1 1.9 -8 1.9 -6.9 1.9 -6.9 -0.1 -12.2 -2.6 -6.8 -2.1 -16.5 1.2 -23.4 11.1 -22.8 43.3 -23.6 55.5 -1.3 3.7 6.9 4.6 17.2 2 24.8 -5 15.2 -23.5 24.5 -38.6 19.4 -5.4 -1.8 -5.8 -1.8 -12.5 -0.1 -8 2 -9.4 2.2 -9.4 0.8z m42.5 -7.8 c14.9 -7.6 18.2 -28.3 6.4 -40.1 -4.8 -4.9 -10.3 -7.1 -17.7 -7.1 -7.3 0 -11.4 1.5 -16.7 6.1 -8 7 -10.4 17.7 -6.4 28.3 1.6 4.5 1.8 6.2 1 9.3 -0.6 2 -0.8 3.9 -0.6 4.2 0.3 0.2 2.2 -0.1 4.4 -0.7 3.3 -1.1 4.4 -0.9 8.2 0.8 5.6 2.6 15.5 2.3 21.4 -0.8z"/>
  <path d="M32.3 44.1 c-7.8 -3.6 -15.3 -13.3 -15.3 -19.8 0 -3.2 2.6 -6.3 5.4 -6.3 2.4 0 5.2 6.8 3.7 9.2 -1.8 2.9 -1.3 4.4 2.3 7.6 4.6 4 7.3 4.8 9.5 2.8 2.1 -1.9 3.2 -2 6.6 -0.4 3 1.3 3.3 4.7 0.7 7.1 -2.4 2.2 -7.7 2.1 -12.9 -0.2z"/>
 </g>
</svg>