<?xml version="1.0" ?><svg xmlns="http://www.w3.org/2000/svg" id="Outdoor_Yoga" data-name="Outdoor Yoga" viewBox="0 0 64 64"><defs><style>
      .cls-1 {
        stroke-width: 0px;
      }
    </style></defs><path class="cls-1" d="M61,49h-1.35c.23-.45.35-.96.35-1.5,0-1.93-1.57-3.5-3.5-3.5h-1.5v-3c0-2.61-1.49-4.58-3.9-5.48,0,0,0,0,0,0,.56-.69.9-1.57.9-2.52v-1c0-2.21-1.79-4-4-4s-4,1.79-4,4v1c0,.95.34,1.83.9,2.52,0,0,0,0,0,0-2.42.89-3.9,2.87-3.9,5.48v3h-1.5c-1.93,0-3.5,1.57-3.5,3.5,0,.54.12,1.05.35,1.5h-4.84c-2.96-4.02-4.53-7.55-5.25-10.56.85.37,1.78.56,2.74.56,3.58,0,6.55-2.71,6.95-6.25,3.5-.88,6.05-4.07,6.05-7.75,0-3.02-1.65-5.7-4.27-7.07.18-.62.27-1.27.27-1.93,0-3.86-3.14-7-7-7-1.1,0-2.17.26-3.13.74-.58-2.7-2.99-4.74-5.87-4.74s-5.29,2.04-5.87,4.74c-.96-.48-2.03-.74-3.13-.74-3.86,0-7,3.14-7,7,0,.66.09,1.31.27,1.93-2.62,1.37-4.27,4.05-4.27,7.07,0,3.67,2.54,6.87,6.04,7.75.38,3.51,3.35,6.25,6.96,6.25.96,0,1.89-.19,2.74-.56-.72,3.01-2.29,6.54-5.25,10.56H3c-.55,0-1,.45-1,1v8c0,.55.45,1,1,1h58c.55,0,1-.45,1-1v-8c0-.55-.45-1-1-1ZM43,41c0-2.95,2.58-4,5-4s5,1.05,5,4v3.09c-2.09.32-3.91,1.54-5,3.29-1.09-1.75-2.91-2.97-5-3.29v-3.09ZM20.04,36.74s.01-.01.01-.02c.06-.17.08-.35.05-.52.58-5.75-1.62-9.58-2.76-11.13l.66-.66,3.29,3.3c.39.39,1.03.39,1.42,0l3.29-3.3.66.66c-1.14,1.55-3.34,5.38-2.76,11.13-.03.17-.01.35.05.52t.01.02c.44,3.45,1.87,7.56,5.09,12.26h-14.1c3.22-4.7,4.65-8.81,5.09-12.26ZM60,57H4v-6h56v6Z"/><path class="cls-1" d="M52,17c3.31,0,6-2.69,6-6s-2.69-6-6-6-6,2.69-6,6,2.69,6,6,6ZM52,7c2.21,0,4,1.79,4,4s-1.79,4-4,4-4-1.79-4-4,1.79-4,4-4Z"/></svg>